HIERARCHY
ROOT Hips
{
	OFFSET 0.00000 0.00000 0.00000
	CHANNELS 6 Xposition Yposition Zposition Zrotation Yrotation Xrotation 
	JOINT LHipJoint
	{
		OFFSET 0 0 0
		CHANNELS 3 Zrotation Yrotation Xrotation
		JOINT LeftHip
		{
			OFFSET 1.37590 -1.78394 0.89329
			CHANNELS 3 Zrotation Yrotation Xrotation
			JOINT LeftKnee
			{
				OFFSET 2.47928 -6.81178 0.00000
				CHANNELS 3 Zrotation Yrotation Xrotation
				JOINT LeftAnkle
				{
					OFFSET 2.63345 -7.23535 0.00000
					CHANNELS 3 Zrotation Yrotation Xrotation
					JOINT LeftToe
					{
						OFFSET 0.23938 -0.65768 2.27012
						CHANNELS 3 Zrotation Yrotation Xrotation
						End Site
						{
							OFFSET 0.00000 -0.00000 1.18363
						}
					}
				}
			}
		}
	}
	JOINT RHipJoint
	{
		OFFSET 0 0 0
		CHANNELS 3 Zrotation Yrotation Xrotation
		JOINT RightHip
		{
			OFFSET -1.33617 -1.78394 0.89329
			CHANNELS 3 Zrotation Yrotation Xrotation
			JOINT RightKnee
			{
				OFFSET -2.56922 -7.05888 0.00000
				CHANNELS 3 Zrotation Yrotation Xrotation
				JOINT RightAnkle
				{
					OFFSET -2.56568 -7.04915 0.00000
					CHANNELS 3 Zrotation Yrotation Xrotation
					JOINT RightToe
					{
						OFFSET -0.27533 -0.75646 2.18105
						CHANNELS 3 Zrotation Yrotation Xrotation
						End Site
						{
							OFFSET -0.00000 -0.00000 1.15233
						}
					}
				}
			}
		}
	}
	JOINT lowerback
	{
		OFFSET 0 0 0
		CHANNELS 3 Zrotation Yrotation Xrotation
		JOINT Chest
		{
			OFFSET 0.06190 2.15152 -0.00935
			CHANNELS 3 Zrotation Yrotation Xrotation
			JOINT Chest2
			{
				OFFSET 0.06334 2.15332 0.00872
				CHANNELS 3 Zrotation Yrotation Xrotation
				JOINT lowerneck
				{
					OFFSET 0 0 0
					CHANNELS 3 Zrotation Yrotation Xrotation
					JOINT Neck
					{
						OFFSET -0.04202 1.66908 0.23524
						CHANNELS 3 Zrotation Yrotation Xrotation
						JOINT Head
						{
							OFFSET 0.07510 1.69357 -0.24440
							CHANNELS 3 Zrotation Yrotation Xrotation
							End Site
							{
								OFFSET 0.02556 1.71719 -0.11000
							}
						}
					}
				}
				JOINT LeftCollar
				{
					OFFSET 0 0 0
					CHANNELS 3 Zrotation Yrotation Xrotation
					JOINT LeftShoulder
					{
						OFFSET 3.67168 1.26306 -0.41342
CHANNELS 3 Zrotation Xrotation Yrotation
						JOINT LeftElbow
						{
OFFSET 0 -4.685100 -0.000000
CHANNELS 3 Zrotation Xrotation Yrotation
							JOINT LeftWrist
							{
OFFSET 0 -3.396260 -0.000000
CHANNELS 3 Zrotation Xrotation Yrotation
								JOINT lhand
								{
									OFFSET 0 0 0
CHANNELS 3 Zrotation Xrotation Yrotation
									JOINT LFingers
									{
OFFSET 0 -0.486080 -0.000000
CHANNELS 3 Zrotation Xrotation Yrotation
										End Site
										{
OFFSET 0 -0.391890 -0.000000
										}
									}
								}
								JOINT LThumb
								{
OFFSET 0 0.000000 0.000000
CHANNELS 3 Zrotation Xrotation Yrotation
									End Site
									{
OFFSET 0 -0.397870 0.397870
									}
								}
							}
						}
					}
				}
				JOINT RightCollar
				{
					OFFSET 0 0 0
					CHANNELS 3 Zrotation Yrotation Xrotation
					JOINT RightShoulder
					{
						OFFSET -3.04136 1.42992 -0.76390
CHANNELS 3 Zrotation Xrotation Yrotation
						JOINT RightElbow
						{
OFFSET 0 -5.555760 -0.000000
CHANNELS 3 Zrotation Xrotation Yrotation
							JOINT RightWrist
							{
OFFSET 0 -3.327740 -0.000000
CHANNELS 3 Zrotation Xrotation Yrotation
								JOINT rhand
								{
									OFFSET 0 0 0
CHANNELS 3 Zrotation Xrotation Yrotation
									JOINT RFingers
									{
OFFSET 0 -0.507630 -0.000000
CHANNELS 3 Zrotation Xrotation Yrotation
										End Site
										{
OFFSET 0 -0.409260 -0.000000
										}
									}
								}
								JOINT RThumb
								{
OFFSET 0 0.000000 0.000000
CHANNELS 3 Zrotation Xrotation Yrotation
									End Site
									{
OFFSET 0 -0.415510 0.415510
									}
								}
							}
						}
					}
				}
			}
		}
	}
}
MOTION
Frames: 6
Frame Time: 0.008333333333333333
4.832488 17.430072 4.638146 -351.572327 -85.693277 355.115437 0.000000 0.000000 0.000000 -21.773880 -0.689302 12.896412 0.994666 6.346192 17.792590 -0.055804 -14.838311 -9.779882 0.169702 -2.649349 -7.304282 0.000000 0.000000 0.000000 14.505288 8.113519 -52.654991 -8.779030 -16.660029 55.317639 -0.584254 -14.781996 15.979255 -1.020590 -6.394614 17.944461 -3.935258 -5.313139 1.475156 2.607757 -7.188884 -3.066683 5.143956 -3.465898 -3.177807 -4.589443 -2.335722 -19.777449 6.990848 -3.240235 14.285257 2.677675 -1.112937 7.851977 0.000000 0.000000 0.000000 1.954084 -13.342078 -51.464250 47.716823 -52.028420 24.363321 10.758981 2.174044 -7.044488 0.000000 0.000000 0.000000 -7.125000 0.000000 0.000000 -13.510817 36.844239 -2.772656 0.000000 0.000000 0.000000 -6.166478 25.159051 13.180083 -25.713240 -36.920287 -8.716302 -12.043668 2.998305 11.588895 0.000000 0.000000 0.000000 7.125000 0.000000 0.000000 13.430102 41.439646 1.203947
4.702864 17.411417 4.620837 -353.308982 -85.661031 357.080312 0.000000 0.000000 0.000000 -21.437639 -0.662505 12.824035 1.039797 6.485175 18.198771 -0.104013 -15.043132 -9.370047 0.196307 -2.852247 -7.867845 0.000000 0.000000 0.000000 15.038465 7.905556 -50.974174 -8.401889 -16.406486 53.996718 -0.432962 -13.538387 14.124964 -0.758970 -5.557443 15.507183 -3.822173 -5.287817 1.110067 2.666671 -7.141253 -3.127648 5.106069 -3.449294 -3.047222 -4.597328 -2.337966 -19.759948 6.904945 -3.225106 14.305771 2.652224 -1.114412 7.853131 0.000000 0.000000 0.000000 1.863052 -12.528434 -51.433351 46.822468 -51.630060 23.659364 10.683142 2.313733 -7.145264 0.000000 0.000000 0.000000 -7.125000 0.000000 0.000000 -13.593451 36.939117 -2.758168 0.000000 0.000000 0.000000 -5.885433 24.677352 13.683450 -26.360719 -37.562060 -9.106905 -12.245605 2.518914 11.722686 0.000000 0.000000 0.000000 7.125000 0.000000 0.000000 13.288105 41.590938 1.139840
4.571070 17.394209 4.602744 -355.371681 -85.649276 359.375451 0.000000 0.000000 0.000000 -21.052161 -0.653306 12.627930 1.108794 6.687982 18.795035 -0.162165 -15.261815 -8.844801 0.229721 -3.079855 -8.501619 0.000000 0.000000 0.000000 15.632572 7.707899 -49.344885 -8.051206 -16.153365 52.741367 -0.287576 -11.956378 11.833918 -0.568164 -4.789519 13.316397 -3.682873 -5.248693 0.729550 2.737639 -7.075843 -3.189639 5.065350 -3.424434 -2.912477 -4.603405 -2.337558 -19.758840 6.800600 -3.203348 14.341292 2.621229 -1.114018 7.861276 0.000000 0.000000 0.000000 1.771478 -11.692792 -51.372137 45.838557 -51.167516 22.891644 10.620261 2.464632 -7.191679 0.000000 0.000000 0.000000 -7.125000 0.000000 0.000000 -13.654750 36.981021 -2.756818 0.000000 0.000000 0.000000 -5.621866 24.160216 14.273903 -27.048336 -38.220588 -9.530835 -12.403968 1.986729 11.826404 0.000000 0.000000 0.000000 7.125000 0.000000 0.000000 13.176121 41.708722 1.090980
4.439017 17.377921 4.584456 -357.631621 -85.649064 361.867124 0.000000 0.000000 0.000000 -20.640658 -0.651688 12.363032 1.191864 6.924542 19.493373 -0.225923 -15.487450 -8.247123 0.267981 -3.325051 -9.185593 0.000000 0.000000 0.000000 16.257250 7.513312 -47.756195 -7.709082 -15.898517 51.503697 -0.157605 -10.323464 9.443971 -0.419356 -4.144878 11.486208 -3.528667 -5.202256 0.352925 2.815346 -7.001451 -3.253083 5.024352 -3.395197 -2.783245 -4.609830 -2.335299 -19.766356 6.688231 -3.177413 14.384642 2.588199 -1.112189 7.873132 0.000000 0.000000 0.000000 1.676262 -10.843319 -51.284471 44.822737 -50.676532 22.102898 10.555793 2.625702 -7.215984 0.000000 0.000000 0.000000 -7.125000 0.000000 0.000000 -13.712935 37.000976 -2.762277 0.000000 0.000000 0.000000 -5.371551 23.623980 14.912437 -27.755426 -38.886107 -9.971270 -12.529600 1.435824 11.923721 0.000000 0.000000 0.000000 7.125000 0.000000 0.000000 13.090984 41.817205 1.047797
4.306764 17.362984 4.565929 -360.179227 -85.665540 364.644873 0.000000 0.000000 0.000000 -20.191846 -0.660599 11.998841 1.295396 7.209497 20.338365 -0.297787 -15.722978 -7.543358 0.313433 -3.596351 -9.944105 0.000000 0.000000 0.000000 16.925435 7.322658 -46.228337 -7.378162 -15.640807 50.288039 -0.052149 -8.642710 6.938162 -0.331658 -3.694015 10.218238 -3.352886 -5.145329 -0.015753 2.902788 -6.914266 -3.318793 4.983195 -3.359682 -2.663429 -4.617010 -2.330298 -19.786229 6.564697 -3.145360 14.439197 2.552428 -1.108214 7.890313 0.000000 0.000000 0.000000 1.575166 -9.973581 -51.156835 43.764205 -50.145856 21.286497 10.487391 2.802188 -7.209894 0.000000 0.000000 0.000000 -7.125000 0.000000 0.000000 -13.768259 36.990655 -2.777470 0.000000 0.000000 0.000000 -5.141023 23.060288 15.620305 -28.490090 -39.561280 -10.435147 -12.606400 0.859888 12.013727 0.000000 0.000000 0.000000 7.125000 0.000000 0.000000 13.046494 41.914006 1.012282
4.175669 17.350466 4.547560 -363.261124 -85.721561 367.943766 0.000000 0.000000 0.000000 -19.691288 -0.667143 11.488824 1.432480 7.561186 21.392183 -0.380852 -15.957876 -6.647543 0.370454 -3.901412 -10.800483 0.000000 0.000000 0.000000 17.655359 7.142417 -44.803025 -7.057182 -15.376314 49.084055 0.009501 -7.140229 4.518913 -0.312166 -3.591649 9.930555 -3.137927 -5.064264 -0.347620 2.997855 -6.797527 -3.386501 4.933625 -3.309232 -2.572537 -4.629764 -2.319198 -19.809520 6.442741 -3.103630 14.498012 2.519338 -1.099927 7.909124 0.000000 0.000000 0.000000 1.482431 -9.100373 -50.996278 42.631945 -49.546079 20.422662 10.430663 2.972942 -7.173566 0.000000 0.000000 0.000000 -7.125000 0.000000 0.000000 -13.807859 36.951358 -2.799500 0.000000 0.000000 0.000000 -4.932319 22.457892 16.421043 -29.262618 -40.247076 -10.932154 -12.600848 0.278799 12.093163 0.000000 0.000000 0.000000 7.125000 0.000000 0.000000 13.071157 41.992349 0.988441
